<svg xmlns="http://www.w3.org/2000/svg" xmlns:xlink="http://www.w3.org/1999/xlink" version="1.1" id="Layer_1" x="0px" y="0px" width="90.507px" height="100px" viewBox="0 0 90.507 100" enable-background="new 0 0 90.507 100" xml:space="preserve">
<g>
	<path fill="#000000" d="M15.953,40.775h36.055c1.245,0,2.253-1.158,2.253-2.588c0-1.43-1.008-2.589-2.253-2.589H15.953   c-1.244,0-2.252,1.159-2.252,2.589C13.7,39.617,14.708,40.775,15.953,40.775z"/>
	<path fill="#000000" d="M15.953,28.479h36.055c1.245,0,2.253-1.159,2.253-2.589c0-1.43-1.008-2.589-2.253-2.589H15.953   c-1.244,0-2.252,1.159-2.252,2.589C13.7,27.32,14.708,28.479,15.953,28.479z"/>
	<path fill="#000000" d="M15.953,53.075h36.055c1.245,0,2.253-1.161,2.253-2.591s-1.008-2.588-2.253-2.588H15.953   c-1.244,0-2.252,1.158-2.252,2.588S14.708,53.075,15.953,53.075z"/>
	<path fill="#000000" d="M87.384,18.363c0.754-1.932,0.715-4.043-0.119-5.944c-0.044-0.101-0.111-0.186-0.159-0.285   c2.015-1.098,3.401-3.212,3.401-5.662C90.507,2.903,87.604,0,84.036,0c-3.572,0-6.476,2.903-6.476,6.473   c0,0.575,0.1,1.123,0.241,1.655c-2.197,0.691-4.001,2.333-4.883,4.567l-5.713,14.603V11.974c0-1.423,0-3.754,0-5.177   c0-1.425-1.08-2.59-2.401-2.59c-1.319,0-3.564,0-4.989,0H7.39c-1.423,0-3.668,0-4.988,0C1.079,4.206,0,5.372,0,6.796   c0,1.423,0,3.754,0,5.177v80.26c0,1.421,0,3.755,0,5.177C0,98.835,1.079,100,2.401,100c1.32,0,3.565,0,4.988,0h52.425   c1.425,0,3.67,0,4.989,0c1.321,0,2.401-1.165,2.401-2.59c0-1.422,0-3.756,0-5.177v-22.3l7.11-18.167   c0.354-0.013,0.71-0.094,1.049-0.265c7.571-3.812,13.048-10.164,14.651-16.993c1.226-5.24,0.141-10.387-3.107-14.931L87.384,18.363   z M77.738,14.59c0.404-1.02,1.383-1.646,2.417-1.646c0.314,0,0.63,0.058,0.938,0.178c1.332,0.521,1.99,2.024,1.469,3.354   l-2.664,6.81c-2.521-0.069-4.259-1.104-4.761-2.046L77.738,14.59z M59.815,94.821H7.39c-1.423,0-2.589-1.167-2.589-2.588v-80.26   c0-1.423,1.166-2.588,2.589-2.588h52.425c1.425,0,2.59,1.165,2.59,2.588v27.595l-8.544,21.829c-0.4-0.708-1.063-1.204-1.854-1.204   H15.953c-1.244,0-2.252,1.161-2.252,2.589c0,1.432,1.008,2.588,2.252,2.588h36.055c0.119,0,0.219-0.057,0.332-0.074l-2.725,6.954   c-0.031,0.08-0.039,0.161-0.067,0.243H15.953c-1.244,0-2.252,1.156-2.252,2.586s1.008,2.591,2.252,2.591h33.609   c0.063,0.174,0.098,0.354,0.174,0.525c0.344,0.787,0.83,1.474,1.387,2.091l-2.549,6.836c-0.5,1.339,0.18,2.83,1.521,3.329   c0.298,0.111,0.604,0.166,0.904,0.166c1.05,0,2.038-0.644,2.425-1.687l2.309-6.185c0.369,0.052,0.74,0.104,1.119,0.104   c2.151,0,4.124-0.883,5.554-2.358v11.741C62.405,93.654,61.24,94.821,59.815,94.821z M59.263,76.022   c-0.404,1.023-1.38,1.649-2.412,1.647c-1.052,0-1.819-0.828-1.887-0.848c-0.652-0.704-0.899-1.729-0.525-2.687L73.11,26.421   c1.325,0.92,2.968,1.586,4.826,1.879L59.263,76.022z M84.974,33.327c-0.951,4.046-3.733,7.924-7.723,10.93l7.219-18.441   C85.4,28.216,85.583,30.727,84.974,33.327z M84.036,7.767c-0.715,0-1.295-0.58-1.295-1.294c0-0.715,0.58-1.295,1.295-1.295   c0.713,0,1.293,0.58,1.293,1.295C85.329,7.187,84.749,7.767,84.036,7.767z"/>
</g>
</svg>